<svg width="48" height="48" viewBox="0 0 48 48" xmlns="http://www.w3.org/2000/svg">
  <defs>
    <!-- Gradient for premium look -->
    <linearGradient id="logoGradient" x1="0%" y1="0%" x2="100%" y2="100%">
      <stop offset="0%" style="stop-color:#3B82F6"/>
      <stop offset="50%" style="stop-color:#06B6D4"/>
      <stop offset="100%" style="stop-color:#8B5CF6"/>
    </linearGradient>
    <!-- Dark theme gradient -->
    <linearGradient id="logoGradientDark" x1="0%" y1="0%" x2="100%" y2="100%">
      <stop offset="0%" style="stop-color:#60A5FA"/>
      <stop offset="50%" style="stop-color:#22D3EE"/>
      <stop offset="100%" style="stop-color:#A78BFA"/>
    </linearGradient>
  </defs>
  
  <!-- Background circle for cohesive design -->
  <circle cx="24" cy="24" r="22" fill="none" stroke="url(#logoGradient)" stroke-width="1.5" opacity="0.3"/>
  
  <!-- Letter 'A' - geometric sans-serif -->
  <path d="M16 35 L18.5 28.5 L25.5 28.5 L28 35 L31 35 L22 12 L18 12 L9 35 L12 35 Z M20 21.5 L24 21.5 L25 25.5 L19 25.5 L20 21.5 Z" 
        fill="url(#logoGradient)" 
        stroke="none"/>
  
  <!-- Bittensor tau symbol 'τ' -->
  <path d="M30 16 L30 13 L39 13 L39 16 L36 16 L36 35 L33 35 L33 16 L30 16 Z" 
        fill="url(#logoGradient)" 
        stroke="none"/>
  
  <!-- Connecting element for cohesion -->
  <circle cx="28.5" cy="23.5" r="1" fill="url(#logoGradient)" opacity="0.6"/>
  
  <style>
    @media (prefers-color-scheme: dark) {
      path { fill: url(#logoGradientDark); }
      circle[stroke] { stroke: url(#logoGradientDark); }
      circle[fill]:not([stroke]) { fill: url(#logoGradientDark); }
    }
  </style>
</svg>