<svg width="48" height="48" viewBox="0 0 48 48" xmlns="http://www.w3.org/2000/svg">
  <defs>
    <!-- Gradient for premium look -->
    <linearGradient id="logoGradient" x1="0%" y1="0%" x2="100%" y2="100%">
      <stop offset="0%" style="stop-color:#3B82F6"/>
      <stop offset="50%" style="stop-color:#06B6D4"/>
      <stop offset="100%" style="stop-color:#8B5CF6"/>
    </linearGradient>
    <!-- Dark theme gradient -->
    <linearGradient id="logoGradientDark" x1="0%" y1="0%" x2="100%" y2="100%">
      <stop offset="0%" style="stop-color:#60A5FA"/>
      <stop offset="50%" style="stop-color:#22D3EE"/>
      <stop offset="100%" style="stop-color:#A78BFA"/>
    </linearGradient>
  </defs>
  
  <!-- Background circle for cohesive design -->
  <circle cx="24" cy="24" r="22" fill="none" stroke="url(#logoGradient)" stroke-width="1.5" opacity="0.3"/>
  
  <!-- Greek Alpha (α) - clearly distinctive -->
  <path d="M12 35 L14.5 29 L22.5 29 L25 35 L28 35 L20 12 L16 12 L8 35 L11 35 Z M17.5 21 L20.5 21 L21.2 24 L16.8 24 L17.5 21 Z" 
        fill="url(#logoGradient)" 
        stroke="none"/>
  
  <!-- Greek Tau (τ) - clearly distinctive -->
  <path d="M30 16 L30 14 L42 14 L42 16 L38 16 L38 35 L35 35 L35 16 L30 16 Z" 
        fill="url(#logoGradient)" 
        stroke="none"/>
  
  <!-- Connecting element for cohesion -->
  <circle cx="28.5" cy="23.5" r="1" fill="url(#logoGradient)" opacity="0.6"/>
  
  <style>
    @media (prefers-color-scheme: dark) {
      path { fill: url(#logoGradientDark); }
      circle[stroke] { stroke: url(#logoGradientDark); }
      circle[fill]:not([stroke]) { fill: url(#logoGradientDark); }
    }
  </style>
</svg>